<svg width="135" height="28" viewBox="0 0 135 28" fill="none" xmlns="http://www.w3.org/2000/svg">
<g filter="url(#filter0_d_1_395)">
<path d="M0 3C0 1.34315 1.34315 0 3 0H132C133.657 0 135 1.34315 135 3V25C135 26.6569 133.657 28 132 28H3C1.34315 28 0 26.6569 0 25V3Z" fill="white"/>
</g>
<g clip-path="url(#clip0_1_395)">
<path d="M6 8C6 6.89543 6.89543 6 8 6H20C21.1046 6 22 6.89543 22 8V20C22 21.1046 21.1046 22 20 22H8C6.89543 22 6 21.1046 6 20V8Z" fill="#4353FF"/>
<path d="M16.836 12.7039C16.836 12.7039 16.024 15.2479 15.964 15.4639C15.94 15.2519 15.348 10.6799 15.348 10.6799C13.964 10.6799 13.228 11.6639 12.836 12.7039C12.836 12.7039 11.848 15.2559 11.768 15.4679C11.764 15.2679 11.616 12.7279 11.616 12.7279C11.532 11.4519 10.368 10.6799 9.42401 10.6799L10.56 17.6039C12.008 17.5999 12.788 16.6199 13.196 15.5759C13.196 15.5759 14.064 13.3239 14.1 13.2239C14.108 13.3199 14.724 17.6039 14.724 17.6039C16.176 17.6039 16.96 16.6879 17.38 15.6839L19.416 10.6799C17.98 10.6799 17.224 11.6599 16.836 12.7039Z" fill="white"/>
</g>
<g clip-path="url(#clip1_1_395)">
<path d="M30.05 18.352H31.49V11.872L34.094 18.352H34.61L37.166 11.872V18.352H38.762V9.77197H36.65L34.442 15.628L32.186 9.77197H30.05V18.352Z" fill="#333333"/>
<path d="M42.1912 18.4721C43.1512 18.4721 43.7032 18.1241 44.1112 17.5841V18.3521H45.5392V14.2361C45.5392 12.5201 44.4352 11.9441 43.0312 11.9441C41.6272 11.9441 40.4632 12.5561 40.3432 14.0201H41.7472C41.8192 13.3961 42.1912 13.0361 42.9472 13.0361C43.7992 13.0361 44.0872 13.4561 44.0872 14.2961V14.6201H43.3072C41.5072 14.6201 40.0912 15.1481 40.0912 16.6121C40.0912 17.9201 41.0392 18.4721 42.1912 18.4721ZM42.5392 17.4281C41.8192 17.4281 41.5312 17.0801 41.5312 16.5521C41.5312 15.7841 42.2392 15.5321 43.3432 15.5321H44.0872V16.1561C44.0872 16.9601 43.4272 17.4281 42.5392 17.4281Z" fill="#333333"/>
<path d="M49.5554 18.4721C50.4794 18.4721 51.2834 17.9201 51.6194 17.2961V18.3521H53.0714V9.17212H51.6194V13.0361C51.2714 12.4121 50.6354 11.9441 49.6154 11.9441C47.9834 11.9441 46.7954 13.2161 46.7954 15.2201V15.3161C46.7954 17.3561 47.9834 18.4721 49.5554 18.4721ZM49.9154 17.3201C48.9794 17.3201 48.2834 16.6601 48.2834 15.2801V15.1841C48.2834 13.8281 48.9074 13.0841 49.9754 13.0841C51.0314 13.0841 51.6674 13.7681 51.6674 15.1481V15.2441C51.6674 16.6481 50.9234 17.3201 49.9154 17.3201Z" fill="#333333"/>
<path d="M57.5572 18.4721C59.1652 18.4721 60.2332 17.7521 60.4372 16.4321H59.0332C58.9252 17.0441 58.4692 17.3921 57.5932 17.3921C56.5132 17.3921 55.9132 16.7201 55.8652 15.5321H60.4612V15.1121C60.4612 12.8681 59.0572 11.9441 57.4972 11.9441C55.7092 11.9441 54.3772 13.2401 54.3772 15.1841V15.2801C54.3772 17.2601 55.7092 18.4721 57.5572 18.4721ZM55.8892 14.5601C56.0332 13.5881 56.6212 13.0001 57.4972 13.0001C58.3972 13.0001 58.9492 13.4801 59.0212 14.5601H55.8892Z" fill="#333333"/>
<path d="M64.6535 18.352H66.1055V12.076H64.6535V18.352ZM65.3615 11.044C65.8415 11.044 66.2255 10.684 66.2255 10.216C66.2255 9.73598 65.8415 9.37598 65.3615 9.37598C64.8815 9.37598 64.4975 9.73598 64.4975 10.216C64.4975 10.684 64.8815 11.044 65.3615 11.044Z" fill="#333333"/>
<path d="M67.8753 18.3521H69.3273V14.6561C69.3273 13.6601 69.9873 13.1561 70.8033 13.1561C71.6673 13.1561 72.0513 13.5881 72.0513 14.5361V18.3521H73.5033V14.4041C73.5033 12.6761 72.6153 11.9441 71.3553 11.9441C70.3233 11.9441 69.6273 12.4601 69.3273 13.0721V12.0761H67.8753V18.3521Z" fill="#333333"/>
<path d="M79.6195 18.352H81.1435L82.8835 12.1L84.5755 18.352H86.1715L88.3195 9.77197H86.8315L85.2955 16.108L83.5915 9.77197H82.2715L80.6035 16.072L79.1155 9.77197H77.4835L79.6195 18.352Z" fill="#333333"/>
<path d="M91.7173 18.4721C93.3253 18.4721 94.3933 17.7521 94.5973 16.4321H93.1933C93.0853 17.0441 92.6293 17.3921 91.7533 17.3921C90.6733 17.3921 90.0733 16.7201 90.0253 15.5321H94.6213V15.1121C94.6213 12.8681 93.2173 11.9441 91.6573 11.9441C89.8693 11.9441 88.5373 13.2401 88.5373 15.1841V15.2801C88.5373 17.2601 89.8693 18.4721 91.7173 18.4721ZM90.0493 14.5601C90.1933 13.5881 90.7813 13.0001 91.6573 13.0001C92.5573 13.0001 93.1093 13.4801 93.1813 14.5601H90.0493Z" fill="#333333"/>
<path d="M99.4223 18.4721C101.042 18.4721 102.206 17.2481 102.206 15.2321V15.1361C102.206 13.1081 100.994 11.9441 99.4223 11.9441C98.4983 11.9441 97.7183 12.4841 97.3703 13.0841V9.17212H95.9183V18.3521H97.3703V17.3441C97.7063 17.9801 98.4263 18.4721 99.4223 18.4721ZM99.0623 17.3201C98.0063 17.3201 97.3223 16.6601 97.3223 15.2561V15.1601C97.3223 13.7681 98.0423 13.0841 99.0503 13.0841C99.9983 13.0841 100.718 13.7681 100.718 15.1601V15.2561C100.718 16.6001 100.13 17.3201 99.0623 17.3201Z" fill="#333333"/>
<path d="M103.764 18.3521H105.216V13.1681H106.644V12.0761H105.216V11.1761C105.216 10.6361 105.456 10.2521 106.032 10.2521C106.296 10.2521 106.476 10.2761 106.644 10.3481V9.22006C106.416 9.14806 106.212 9.11206 105.852 9.11206C104.52 9.11206 103.764 9.85606 103.764 11.2361V12.0761H102.912V13.1681H103.764V18.3521Z" fill="#333333"/>
<path d="M107.732 18.3521H109.184V9.17212H107.732V18.3521Z" fill="#333333"/>
<path d="M113.761 17.3441C112.657 17.3441 112.021 16.5401 112.021 15.2561V15.1601C112.021 13.8641 112.681 13.0841 113.761 13.0841C114.841 13.0841 115.489 13.8761 115.489 15.1721V15.2561C115.489 16.5401 114.841 17.3441 113.761 17.3441ZM113.749 18.4721C115.597 18.4721 116.977 17.2001 116.977 15.2441V15.1481C116.977 13.2281 115.597 11.9441 113.761 11.9441C111.913 11.9441 110.533 13.2401 110.533 15.1841V15.2801C110.533 17.1881 111.901 18.4721 113.749 18.4721Z" fill="#333333"/>
<path d="M119.41 18.3522H120.898L122.17 14.1282L123.334 18.3522H124.81L126.778 12.0762H125.362L124.054 16.6122L122.83 12.0762H121.618L120.286 16.6122L119.038 12.0762H117.49L119.41 18.3522Z" fill="#333333"/>
</g>
<defs>
<filter id="filter0_d_1_395" x="0" y="0" width="135" height="28" filterUnits="userSpaceOnUse" color-interpolation-filters="sRGB">
<feFlood flood-opacity="0" result="BackgroundImageFix"/>
<feColorMatrix in="SourceAlpha" type="matrix" values="0 0 0 0 0 0 0 0 0 0 0 0 0 0 0 0 0 0 127 0" result="hardAlpha"/>
<feOffset/>
<feColorMatrix type="matrix" values="0 0 0 0 0 0 0 0 0 0 0 0 0 0 0 0 0 0 0.1 0"/>
<feBlend mode="normal" in2="BackgroundImageFix" result="effect1_dropShadow_1_395"/>
<feBlend mode="normal" in="SourceGraphic" in2="effect1_dropShadow_1_395" result="shape"/>
</filter>
<clipPath id="clip0_1_395">
<rect width="16" height="16" fill="white" transform="translate(6 6)"/>
</clipPath>
<clipPath id="clip1_1_395">
<rect width="97" height="10" fill="white" transform="translate(30 9)"/>
</clipPath>
</defs>
</svg>
